<svg width="18" height="18" viewBox="0 0 18 18" fill="none" xmlns="http://www.w3.org/2000/svg">
<path d="M7 0.5C8.72391 0.5 10.3772 1.18482 11.5962 2.40381C12.8152 3.62279 13.5 5.27609 13.5 7C13.5 8.61 12.91 10.09 11.94 11.23L12.21 11.5H13L18 16.5L16.5 18L11.5 13V12.21L11.23 11.94C10.0505 12.9468 8.55071 13.4999 7 13.5C5.27609 13.5 3.62279 12.8152 2.40381 11.5962C1.18482 10.3772 0.5 8.72391 0.5 7C0.5 5.27609 1.18482 3.62279 2.40381 2.40381C3.62279 1.18482 5.27609 0.5 7 0.5ZM7 2.5C4.5 2.5 2.5 4.5 2.5 7C2.5 9.5 4.5 11.5 7 11.5C9.5 11.5 11.5 9.5 11.5 7C11.5 4.5 9.5 2.5 7 2.5Z" fill="white"/>
</svg>
